<?xml version="1.0" encoding="utf-8"?>
<!-- Generator: Adobe Illustrator 14.0.0, SVG Export Plug-In . SVG Version: 6.00 Build 43363)  -->
<!DOCTYPE svg PUBLIC "-//W3C//DTD SVG 1.1//EN" "http://www.w3.org/Graphics/SVG/1.1/DTD/svg11.dtd">
<svg version="1.1" id="Capa_1" xmlns="http://www.w3.org/2000/svg" xmlns:xlink="http://www.w3.org/1999/xlink" x="0px" y="0px"
	 width="256px" height="256px" viewBox="0 0 256 256" enable-background="new 0 0 256 256" xml:space="preserve">
<radialGradient id="path4112_1_" cx="9.6641" cy="-62.5659" r="65.1855" gradientTransform="matrix(1.6891 0 0 -0.777 107.7809 146.5186)" gradientUnits="userSpaceOnUse">
	<stop  offset="0" style="stop-color:#000000"/>
	<stop  offset="1" style="stop-color:#000000;stop-opacity:0"/>
</radialGradient>
<path id="path4112" sodipodi:type="arc" sodipodi:cx="24.849752" sodipodi:cy="38.908627" sodipodi:rx="20.203051" sodipodi:ry="7.4751287" fill="url(#path4112_1_)" d="
	M234.208,195.136c0,27.97-49.292,50.646-110.096,50.646C63.299,245.781,14,223.105,14,195.136l0,0
	c0-27.974,49.299-50.653,110.112-50.653C184.916,144.482,234.208,167.162,234.208,195.136L234.208,195.136z"/>
<g>
	<path id="path3214" fill="#3465A4" stroke="#383869" stroke-width="6" d="M228.254,115.48c0,58.367-47.314,105.685-105.672,105.685
		c-58.367,0-105.681-47.318-105.681-105.685c0-58.362,47.314-105.676,105.681-105.676C180.939,9.804,228.254,57.118,228.254,115.48
		L228.254,115.48z"/>
	
		<radialGradient id="path4348_1_" cx="101.0571" cy="199.0898" r="173.2639" gradientTransform="matrix(1.0131 0 0 -0.871 3.7349 209.2955)" gradientUnits="userSpaceOnUse">
		<stop  offset="0" style="stop-color:#FFFFFF"/>
		<stop  offset="1" style="stop-color:#FFFFFF;stop-opacity:0"/>
	</radialGradient>
	
		<path id="path4348" sodipodi:type="arc" sodipodi:cx="17.778685" sodipodi:cy="15.271057" sodipodi:rx="12.929953" sodipodi:ry="9.2934036" opacity="0.4216" fill="url(#path4348_1_)" enable-background="new    " d="
		M182.461,70.713c0,27.972-26.365,50.647-58.902,50.647c-32.534,0-58.907-22.676-58.907-50.647
		c0-27.973,26.373-50.649,58.907-50.649C156.096,20.064,182.461,42.74,182.461,70.713z"/>
	<g id="g4136" transform="matrix(1.009314,0,0,1.009314,-0.462242,-1.898797)">
		<g id="g4138">
			<g id="g4142">
				<path id="path4144" fill-opacity="0.7134" d="M223.668,100.621C223.668,102.013,223.668,100.621,223.668,100.621l-2.894,3.273
					c-1.772-2.087-3.758-3.842-5.779-5.677l-4.434,0.651l-4.051-4.576v5.665l3.476,2.624l2.304,2.618l3.09-3.493
					c0.78,1.458,1.541,2.914,2.312,4.369v4.36l-3.476,3.926l-6.362,4.367l-4.812,4.808l-3.091-3.502l1.542-3.926l-3.084-3.489
					l-5.205-11.131l-4.427-5.013l-1.164,1.306l1.738,6.332l3.271,3.708c1.874,5.398,3.724,10.556,6.182,15.715
					c3.801,0,7.397-0.403,11.181-0.878v3.056l-4.631,11.345l-4.24,4.799l-3.475,7.428c0,4.071,0,8.147,0,12.213l1.165,4.812
					l-1.927,2.175l-4.254,2.616l-4.436,3.712l3.674,4.143l-5.018,4.371l0.968,2.83l-7.527,8.511h-5.008l-4.239,2.624h-2.705v-3.489
					l-1.147-6.994c-1.491-4.384-3.049-8.739-4.633-13.083c0-3.215,0.196-6.396,0.385-9.602l1.935-4.363l-2.705-5.244l0.196-7.201
					l-3.664-4.143l1.833-5.999l-2.989-3.382h-5.205l-1.738-1.965l-5.206,3.27l-2.115-2.405l-4.828,4.149
					c-3.271-3.712-6.551-7.42-9.829-11.127l-3.853-9.17l3.476-5.231l-1.935-2.183l4.237-10.044
					c3.485-4.332,7.124-8.483,10.798-12.652l6.558-1.749l7.32-0.869l5.018,1.31l7.133,7.196l2.508-2.834l3.468-0.434l6.558,2.181
					h5.018l3.468-3.056l1.541-2.181l-3.476-2.181l-5.788-0.435c-1.6-2.226-3.1-4.57-5-6.547l-1.935,0.869l-0.77,5.678l-3.469-3.925
					l-0.769-4.373l-3.854-3.046h-1.549l3.861,4.362l-1.542,3.926l-3.09,0.871l1.935-3.926l-3.484-1.74l-3.074-3.493l-5.797,1.306
					l-0.762,1.74l-3.468,2.188l-1.926,4.801l-4.82,2.399l-2.124-2.399h-2.311v-7.858l5.017-2.62h3.854l-0.78-3.053l-3.074-3.056
					l5.198-1.092l2.894-3.271l2.304-3.93h4.254l-1.164-3.053l2.706-1.744v3.491l5.779,1.306l5.787-4.797l0.386-2.186l5.008-3.491
					c-1.814,0.227-3.622,0.394-5.402,0.876v-3.932l1.926-4.365h-1.926l-4.23,3.926l-1.164,2.185l1.164,3.059l-1.934,5.229
					l-3.083-1.744l-2.698-3.053l-4.238,3.053l-1.55-6.98l7.32-4.799v-2.621l4.633-3.056l7.328-1.747l5.018,1.747l9.247,1.748
					l-2.311,2.614h-5.009l5.009,5.237l3.852-4.362l1.174-1.918c0,0,14.786,13.25,23.237,27.744
					C219.696,80.061,223.668,97.149,223.668,100.621z"/>
			</g>
		</g>
		<g id="g4146">
			<g id="g4150">
				<path id="path4152" fill-opacity="0.7134" d="M128.185,39.734l-0.394,2.618l2.706,1.744l4.623-3.054l-2.311-2.618l-3.091,1.749
					L128.185,39.734"/>
			</g>
		</g>
		<g id="g4154">
			<g id="g4158">
				<path id="path4160" fill-opacity="0.7134" d="M132.423,21.844l-10.026-3.93l-11.566,1.31l-14.268,3.926l-2.699,2.62l8.868,6.107
					v3.493l-3.468,3.489l4.628,9.172l3.074-1.751l3.865-6.107c5.96-1.843,11.3-3.928,16.96-6.55L132.423,21.844"/>
			</g>
		</g>
		<g id="g4162">
			<g id="g4166">
				<path id="path4168" fill-opacity="0.7134" d="M142.834,58.506l-1.54-3.932l-2.706,0.876l0.78,4.795L142.834,58.506"/>
			</g>
		</g>
		<g id="g4170">
			<g id="g4174">
				<path id="path4176" fill-opacity="0.7134" d="M144.375,57.624l-0.77,5.244l4.238-0.875l3.083-3.052l-2.698-2.623
					c-0.908-2.412-1.944-4.664-3.082-6.982h-2.312v2.617l1.541,1.745V57.624"/>
			</g>
		</g>
		<g id="g4178">
			<g id="g4182">
				<path id="path4184" fill-opacity="0.7134" d="M87.31,140.553l-3.085-6.114l-5.784-1.309l-3.085-8.289l-7.714,0.874l-6.553-4.799
					l-6.943,6.104v0.968c-2.1-0.608-4.682-0.689-6.55-1.841l-1.545-4.358v-4.807l-4.623,0.436c0.385-3.056,0.764-6.105,1.155-9.161
					h-2.701l-2.699,3.489l-2.699,1.306l-3.855-2.175l-0.39-4.801l0.775-5.238l5.784-4.362h4.625l0.769-2.62l5.784,1.306l4.245,5.24
					l0.771-8.733l7.329-6.107l2.699-6.546l5.394-2.181l3.085-4.362l6.94-1.317l3.474-5.233c-3.47,0-6.94,0-10.414,0l6.559-3.053
					h4.619l6.561-2.187l0.775-2.611l-2.321-2.188l-2.695-0.873l0.771-2.616l-1.931-3.925l-4.624,1.738l0.771-3.489l-5.4-3.057
					l-4.238,7.417l0.383,2.62l-4.238,1.753l-2.706,5.67l-1.154-5.238l-7.325-3.056l-1.158-3.926l9.636-5.676l4.245-3.926
					l0.385-4.801l-2.31-1.308l-3.085-0.439l-1.929,4.801c0,0-3.223,0.631-4.055,0.835c-10.587,9.759-31.979,30.821-36.952,70.581
					c0.199,0.924,3.603,6.272,3.603,6.272l8.099,4.795l8.098,2.188l3.47,4.367l5.401,3.926l3.082-0.437l2.312,1.045v0.699
					l-3.08,8.296l-2.321,3.489l0.775,1.755l-1.929,6.534l6.944,12.662l6.937,6.11l3.085,4.362l-0.383,9.169l2.314,5.228
					l-2.314,10.038c0,0-0.186-0.06,0.111,0.946c0.298,1.006,12.356,7.698,13.119,7.128c0.764-0.578,1.417-1.088,1.417-1.088
					l-0.766-2.17l3.08-3.06l1.16-3.057l5.013-1.751l3.855-9.602l-1.153-2.612l2.693-3.929l5.785-1.311l3.083-6.987l-0.771-8.72
					l4.628-6.549l0.775-6.546C99.868,147.012,93.592,143.78,87.31,140.553"/>
			</g>
		</g>
		<g id="g4186">
			<g id="g4190">
				<path id="path4192" fill-opacity="0.7134" d="M78.827,41.479l3.855,2.617h3.085v-3.054l-3.855-1.744L78.827,41.479"/>
			</g>
		</g>
		<g id="g4194">
			<g id="g4198">
				<path id="path4200" fill-opacity="0.7134" d="M68.803,37.99l-1.929,4.799h3.853l1.931-4.365c1.663-1.177,3.32-2.359,5.015-3.491
					l3.853,1.312c2.571,1.745,5.144,3.489,7.715,5.234L93.1,37.99l-4.249-1.745l-1.931-3.93l-7.322-0.874l-0.386-2.183l-3.47,0.876
					l-1.539,3.055l-1.931-3.93l-0.77,1.745l0.386,4.367L68.803,37.99"/>
			</g>
		</g>
		<g id="g4222">
			<g id="g4226">
				<path id="path4228" fill-opacity="0.7134" d="M82.682,27.075l1.928-1.743l3.855-0.876c2.643-1.282,5.295-2.147,8.097-3.056
					l-1.539-2.618L90.045,19.5l-2.35,2.344l-3.878,0.561l-3.444,1.621l-1.678,0.809l-1.021,1.372L82.682,27.075"/>
			</g>
		</g>
		<g id="g4230">
			<g id="g4234">
				<path id="path4236" fill-opacity="0.7134" d="M89.24,68.539l2.314-3.489l-3.474-2.618L89.24,68.539"/>
			</g>
		</g>
	</g>
	<g id="g3216" transform="matrix(1.009314,0,0,1.009314,-0.669814,-2.106369)">
		<g id="g3218">
			<g id="g3222">
				<path id="path3224" fill="#204A87" d="M222.787,99.733C222.787,101.126,222.787,99.733,222.787,99.733l-2.895,3.275
					c-1.772-2.089-3.758-3.845-5.779-5.677l-4.434,0.653l-4.05-4.578v5.666l3.468,2.624l2.311,2.618l3.083-3.491
					c0.779,1.458,1.55,2.911,2.32,4.367v4.365l-3.476,3.926l-6.361,4.362l-4.821,4.812l-3.082-3.506l1.541-3.926l-3.084-3.489
					l-5.205-11.129l-4.435-5.015l-1.155,1.305l1.739,6.332l3.27,3.708c1.865,5.398,3.724,10.557,6.173,15.72
					c3.81,0,7.397-0.407,11.182-0.882v3.056l-4.623,11.345l-4.248,4.799l-3.468,7.427c0,4.076,0,8.143,0,12.214l1.156,4.808
					l-1.919,2.179l-4.254,2.62l-4.435,3.707l3.673,4.144l-5.017,4.375l0.958,2.821l-7.517,8.519h-5.009l-4.247,2.62h-2.697v-3.493
					l-1.156-6.987c-1.49-4.385-3.04-8.738-4.624-13.087c0-3.215,0.189-6.396,0.386-9.603l1.934-4.362l-2.705-5.24l0.189-7.209
					l-3.665-4.14l1.833-6.002l-2.98-3.383h-5.214l-1.729-1.964l-5.206,3.274l-2.123-2.401l-4.82,4.149
					c-3.271-3.716-6.55-7.424-9.829-11.131l-3.854-9.17l3.468-5.231l-1.926-2.183l4.238-10.042
					c3.485-4.332,7.115-8.487,10.797-12.655l6.549-1.746l7.33-0.871l5.016,1.312l7.125,7.194L169,88.602l3.459-0.435l6.558,2.181
					h5.018l3.468-3.056l1.55-2.181l-3.476-2.181l-5.788-0.437c-1.6-2.224-3.1-4.568-5.009-6.545l-1.925,0.871l-0.78,5.674
					l-3.468-3.925l-0.761-4.369l-3.854-3.046h-1.549l3.853,4.362l-1.541,3.926l-3.083,0.869l1.927-3.926l-3.476-1.741l-3.074-3.491
					l-5.797,1.306l-0.762,1.74l-3.476,2.186l-1.925,4.801l-4.813,2.4l-2.132-2.4h-2.302v-7.858l5.008-2.62h3.861l-0.779-3.05
					l-3.083-3.056l5.205-1.094l2.895-3.268l2.303-3.932h4.255l-1.164-3.05l2.705-1.744V55l5.779,1.306l5.779-4.795L169,49.324
					l5.009-3.489c-1.824,0.224-3.63,0.389-5.403,0.871v-3.93l1.926-4.362h-1.926l-4.23,3.926l-1.164,2.183l1.164,3.059l-1.934,5.229
					l-3.084-1.745l-2.697-3.05l-4.247,3.05l-1.549-6.98l7.328-4.799v-2.62l4.633-3.055l7.32-1.749l5.017,1.749l9.257,1.746
					l-2.312,2.616h-5.017l5.017,5.235l3.854-4.362l1.173-1.918c0,0,14.777,13.249,23.229,27.745
					C218.814,79.173,222.787,96.265,222.787,99.733z"/>
			</g>
		</g>
		<g id="g3226">
			<g id="g3230">
				<path id="path3232" fill="#204A87" d="M127.294,38.848l-0.385,2.618l2.706,1.744l4.623-3.052l-2.319-2.618l-3.083,1.747
					L127.294,38.848"/>
			</g>
		</g>
		<g id="g3234">
			<g id="g3238">
				<path id="path3240" fill="#204A87" d="M131.541,20.958l-10.026-3.928l-11.565,1.308l-14.273,3.925l-2.699,2.62l8.868,6.109
					v3.491l-3.47,3.491l4.63,9.169l3.078-1.748l3.866-6.109c5.955-1.841,11.3-3.928,16.959-6.548L131.541,20.958"/>
			</g>
		</g>
		<g id="g3242">
			<g id="g3246">
				<path id="path3248" fill="#204A87" d="M141.952,57.62l-1.541-3.932l-2.705,0.876l0.771,4.797L141.952,57.62"/>
			</g>
		</g>
		<g id="g3250">
			<g id="g3254">
				<path id="path3256" fill="#204A87" d="M143.485,56.74l-0.761,5.24l4.238-0.873l3.083-3.053l-2.698-2.62
					c-0.907-2.416-1.952-4.668-3.09-6.984h-2.304v2.618l1.533,1.747V56.74"/>
			</g>
		</g>
		<g id="g3258">
			<g id="g3262">
				<path id="path3264" fill="#204A87" d="M86.423,139.662l-3.085-6.104l-5.784-1.315l-3.087-8.288l-7.708,0.873l-6.554-4.799
					l-6.943,6.109v0.963c-2.1-0.608-4.682-0.689-6.555-1.841l-1.543-4.362v-4.799l-4.626,0.432c0.386-3.052,0.771-6.109,1.16-9.161
					h-2.703l-2.695,3.489l-2.706,1.306l-3.855-2.175l-0.383-4.801l0.769-5.238l5.79-4.362h4.623l0.771-2.621l5.783,1.304l4.24,5.242
					l0.775-8.731l7.322-6.107l2.699-6.549l5.4-2.181l3.085-4.36l6.939-1.316l3.474-5.232c-3.474,0-6.944,0-10.413,0l6.554-3.056
					h4.623l6.559-2.188l0.771-2.609l-2.314-2.186l-2.701-0.875l0.771-2.616l-1.925-3.925l-4.629,1.74l0.77-3.491L73.7,42.776
					l-4.24,7.415l0.381,2.62l-4.24,1.753l-2.699,5.673l-1.153-5.238l-7.33-3.056l-1.16-3.926l9.643-5.676l4.241-3.926l0.389-4.801
					L65.215,32.3l-3.084-0.436l-1.925,4.801c0,0-3.228,0.631-4.054,0.837C45.565,47.258,24.169,68.321,19.2,108.085
					c0.195,0.921,3.603,6.267,3.603,6.267l8.094,4.795l8.099,2.187l3.474,4.367l5.394,3.925l3.085-0.432l2.314,1.04v0.702
					l-3.085,8.296l-2.314,3.49l0.769,1.75l-1.924,6.533l6.939,12.663l6.94,6.109l3.089,4.363l-0.39,9.166l2.314,5.235l-2.314,10.038
					c0,0-0.179-0.06,0.114,0.946c0.297,1.006,12.357,7.698,13.123,7.124c0.764-0.578,1.415-1.092,1.415-1.092l-0.768-2.17
					l3.085-3.056l1.153-3.057l5.015-1.755l3.853-9.593l-1.153-2.62l2.695-3.921l5.784-1.32l3.089-6.982l-0.775-8.721l4.628-6.549
					l0.771-6.545C98.986,146.13,92.71,142.898,86.423,139.662"/>
			</g>
		</g>
		<g id="g3266">
			<g id="g3270">
				<path id="path3272" fill="#204A87" d="M77.939,40.595l3.855,2.615h3.089v-3.052l-3.853-1.744L77.939,40.595"/>
			</g>
		</g>
		<g id="g3274">
			<g id="g3278">
				<path id="path3280" fill="#204A87" d="M67.917,37.104l-1.931,4.799h3.859l1.931-4.363c1.663-1.177,3.315-2.361,5.009-3.493
					l3.859,1.312c2.567,1.744,5.138,3.489,7.708,5.236l3.859-3.491l-4.245-1.744l-1.928-3.928l-7.325-0.876l-0.389-2.181
					l-3.47,0.876l-1.539,3.053l-1.931-3.928l-0.768,1.745l0.385,4.364L67.917,37.104"/>
			</g>
		</g>
		<g id="g3302">
			<g id="g3306">
				<path id="path3308" fill="#204A87" d="M81.794,26.189l1.931-1.743l3.859-0.873c2.637-1.284,5.292-2.149,8.094-3.056
					l-1.535-2.618l-4.979,0.713l-2.355,2.346l-3.876,0.563l-3.448,1.619L77.81,23.95l-1.026,1.37L81.794,26.189"/>
			</g>
		</g>
		<g id="g3310">
			<g id="g3314">
				<path id="path3316" fill="#204A87" d="M88.352,67.655l2.316-3.493l-3.476-2.616L88.352,67.655"/>
			</g>
		</g>
	</g>
	<path id="path4122" fill="none" stroke="#FFFFFF" stroke-width="5" d="M222.888,115.48c0,55.403-44.912,100.319-100.306,100.319
		c-55.403,0-100.314-44.916-100.314-100.319c0-55.4,44.911-100.307,100.314-100.307C177.976,15.173,222.888,60.08,222.888,115.48
		L222.888,115.48z"/>
</g>
<radialGradient id="path8660_1_" cx="91.5083" cy="1391.1582" r="29.6665" gradientTransform="matrix(1.4897 0 0 0.5374 61.9156 -507.5522)" gradientUnits="userSpaceOnUse">
	<stop  offset="0" style="stop-color:#000000"/>
	<stop  offset="1" style="stop-color:#000000;stop-opacity:0"/>
</radialGradient>
<path id="path8660" sodipodi:type="arc" sodipodi:cx="24.837126" sodipodi:cy="36.421127" sodipodi:rx="15.644737" sodipodi:ry="8.3968935" opacity="0.1412" fill="url(#path8660_1_)" enable-background="new    " d="
	M242.427,240.056c0.009-8.802-19.765-15.944-44.178-15.944c-24.403-0.004-44.193,7.134-44.203,15.937c0,0.004,0,0.008,0,0.008
	C154.038,248.862,173.819,256,198.224,256c24.404,0.005,44.193-7.129,44.203-15.936
	C242.427,240.064,242.427,240.061,242.427,240.056z"/>
<g>
	<g>
		<g>
			<path fill="#519E07" d="M195.579,39.087c0.337-2.223-14.803-15.396-15.953-12.485C132.097,147.022,67.035,187.138,66.322,204.962
				c-0.117,2.942,18.338,12.327,19.781,9.73C88.762,209.909,181.666,129.994,195.579,39.087z"/>
			<path fill="none" stroke="#3A7304" stroke-width="6" d="M195.579,39.087c0.337-2.223-14.803-15.396-15.953-12.485
				C132.097,147.022,67.035,187.138,66.322,204.962c-0.117,2.942,18.338,12.327,19.781,9.73
				C88.762,209.909,181.666,129.994,195.579,39.087z"/>
		</g>
		<g>
			<path fill="none" stroke="#9AC56E" stroke-width="6" d="M83.713,209.572c9.752-11.088,80.695-71.943,108.159-166.964
				c0.604-2.08-9.618-12.409-10.889-8.857C145.188,133.355,78.435,188.353,72.017,202.161
				C71.388,203.519,80.505,210.146,83.713,209.572z"/>
		</g>
	</g>
</g>
<g>
	<path fill="#519E07" stroke="#3A7304" stroke-width="6" d="M207.186,175.743c-7.337-70.854-62.239-160.281-65.747-163.079
		c-8.106-6.471-21.624-5.808-23.612-2.158c0.661,24.901,58.784,109.377,53.202,170.324l-32.252,4.527l59.3,53.221l40.401-67.225
		L207.186,175.743z"/>
	<path fill="none" stroke="#9AC56E" stroke-width="6" d="M202.526,181.832c-8.728-73.473-56.611-162.796-69.332-167.752
		c-12.883-2.874-7.527-0.3-8.824,0c-11.737-4.275,60.596,109.053,51.143,171.3l-24.482,3.854l45.498,41.165l31.413-52.214
		L202.526,181.832z"/>
</g>
</svg>
